<svg xmlns="http://www.w3.org/2000/svg" width="171" height="171" fill="none" viewBox="0 0 171 171">
  <path fill="#008964" d="M85.5 0C38.268 0 0 38.268 0 85.5S38.268 171 85.5 171 171 132.732 171 85.5 132.732 0 85.5 0zm0 33.097c16.755 0 30.339 13.583 30.339 30.338 0 16.756-13.584 30.34-30.339 30.34S55.161 80.19 55.161 63.434c0-16.755 13.584-30.338 30.339-30.338zm0 118.597c-20.237 0-38.372-9.171-50.507-23.513 6.481-12.204 19.168-20.616 33.959-20.616.827 0 1.654.137 2.447.379 4.482 1.448 9.171 2.379 14.101 2.379 4.93 0 9.653-.931 14.1-2.379a8.415 8.415 0 012.448-.379c14.791 0 27.478 8.412 33.959 20.616-12.135 14.342-30.27 23.513-50.507 23.513z"/>
</svg>
